<svg xmlns="http://www.w3.org/2000/svg" viewBox="0 0 810.00 320.00">
  <style>
    .key-bg { fill: #f5f5f5; stroke: #d4d4d4; stroke-width: 1; }
    .key-index { fill: #171717; font-family: ui-monospace, SFMono-Regular, "SF Mono", Menlo, Consolas, "Liberation Mono", monospace; font-weight: 700; text-anchor: middle; dominant-baseline: central; }
    .key-part { font-family: system-ui, -apple-system, BlinkMacSystemFont, "Segoe UI", Roboto, sans-serif; text-anchor: middle; dominant-baseline: central; }
    @media (prefers-color-scheme: dark) {
      .key-bg { fill: #2a2a2a; stroke: #404040; }
      .key-index { fill: #e5e5e5; }
    }
  </style>
  <g>
    <path class="key-bg" d="M 26.00,22.00 L 84.00,22.00 Q 88.00,22.00 88.00,26.00 L 88.00,84.00 Q 88.00,88.00 84.00,88.00 L 26.00,88.00 Q 22.00,88.00 22.00,84.00 L 22.00,26.00 Q 22.00,22.00 26.00,22.00 Z" />
    <path class="key-bg" d="M 96.00,22.00 L 154.00,22.00 Q 158.00,22.00 158.00,26.00 L 158.00,84.00 Q 158.00,88.00 154.00,88.00 L 96.00,88.00 Q 92.00,88.00 92.00,84.00 L 92.00,26.00 Q 92.00,22.00 96.00,22.00 Z" />
    <path class="key-bg" d="M 166.00,22.00 L 224.00,22.00 Q 228.00,22.00 228.00,26.00 L 228.00,84.00 Q 228.00,88.00 224.00,88.00 L 166.00,88.00 Q 162.00,88.00 162.00,84.00 L 162.00,26.00 Q 162.00,22.00 166.00,22.00 Z" />
    <path class="key-bg" d="M 236.00,22.00 L 294.00,22.00 Q 298.00,22.00 298.00,26.00 L 298.00,84.00 Q 298.00,88.00 294.00,88.00 L 236.00,88.00 Q 232.00,88.00 232.00,84.00 L 232.00,26.00 Q 232.00,22.00 236.00,22.00 Z" />
    <path class="key-bg" d="M 306.00,22.00 L 364.00,22.00 Q 368.00,22.00 368.00,26.00 L 368.00,84.00 Q 368.00,88.00 364.00,88.00 L 306.00,88.00 Q 302.00,88.00 302.00,84.00 L 302.00,26.00 Q 302.00,22.00 306.00,22.00 Z" />
    <path class="key-bg" d="M 376.00,22.00 L 434.00,22.00 Q 438.00,22.00 438.00,26.00 L 438.00,84.00 Q 438.00,88.00 434.00,88.00 L 376.00,88.00 Q 372.00,88.00 372.00,84.00 L 372.00,26.00 Q 372.00,22.00 376.00,22.00 Z" />
    <path class="key-bg" d="M 446.00,22.00 L 504.00,22.00 Q 508.00,22.00 508.00,26.00 L 508.00,84.00 Q 508.00,88.00 504.00,88.00 L 446.00,88.00 Q 442.00,88.00 442.00,84.00 L 442.00,26.00 Q 442.00,22.00 446.00,22.00 Z" />
    <path class="key-bg" d="M 516.00,22.00 L 574.00,22.00 Q 578.00,22.00 578.00,26.00 L 578.00,84.00 Q 578.00,88.00 574.00,88.00 L 516.00,88.00 Q 512.00,88.00 512.00,84.00 L 512.00,26.00 Q 512.00,22.00 516.00,22.00 Z" />
    <path class="key-bg" d="M 586.00,22.00 L 644.00,22.00 Q 648.00,22.00 648.00,26.00 L 648.00,84.00 Q 648.00,88.00 644.00,88.00 L 586.00,88.00 Q 582.00,88.00 582.00,84.00 L 582.00,26.00 Q 582.00,22.00 586.00,22.00 Z" />
    <path class="key-bg" d="M 656.00,22.00 L 714.00,22.00 Q 718.00,22.00 718.00,26.00 L 718.00,84.00 Q 718.00,88.00 714.00,88.00 L 656.00,88.00 Q 652.00,88.00 652.00,84.00 L 652.00,26.00 Q 652.00,22.00 656.00,22.00 Z" />
    <path class="key-bg" d="M 726.00,22.00 L 784.00,22.00 Q 788.00,22.00 788.00,26.00 L 788.00,84.00 Q 788.00,88.00 784.00,88.00 L 726.00,88.00 Q 722.00,88.00 722.00,84.00 L 722.00,26.00 Q 722.00,22.00 726.00,22.00 Z" />
    <path class="key-bg" d="M 26.00,92.00 L 101.50,92.00 Q 105.50,92.00 105.50,96.00 L 105.50,154.00 Q 105.50,158.00 101.50,158.00 L 26.00,158.00 Q 22.00,158.00 22.00,154.00 L 22.00,96.00 Q 22.00,92.00 26.00,92.00 Z" />
    <path class="key-bg" d="M 113.50,92.00 L 171.50,92.00 Q 175.50,92.00 175.50,96.00 L 175.50,154.00 Q 175.50,158.00 171.50,158.00 L 113.50,158.00 Q 109.50,158.00 109.50,154.00 L 109.50,96.00 Q 109.50,92.00 113.50,92.00 Z" />
    <path class="key-bg" d="M 183.50,92.00 L 241.50,92.00 Q 245.50,92.00 245.50,96.00 L 245.50,154.00 Q 245.50,158.00 241.50,158.00 L 183.50,158.00 Q 179.50,158.00 179.50,154.00 L 179.50,96.00 Q 179.50,92.00 183.50,92.00 Z" />
    <path class="key-bg" d="M 253.50,92.00 L 311.50,92.00 Q 315.50,92.00 315.50,96.00 L 315.50,154.00 Q 315.50,158.00 311.50,158.00 L 253.50,158.00 Q 249.50,158.00 249.50,154.00 L 249.50,96.00 Q 249.50,92.00 253.50,92.00 Z" />
    <path class="key-bg" d="M 323.50,92.00 L 381.50,92.00 Q 385.50,92.00 385.50,96.00 L 385.50,154.00 Q 385.50,158.00 381.50,158.00 L 323.50,158.00 Q 319.50,158.00 319.50,154.00 L 319.50,96.00 Q 319.50,92.00 323.50,92.00 Z" />
    <path class="key-bg" d="M 428.50,92.00 L 486.50,92.00 Q 490.50,92.00 490.50,96.00 L 490.50,154.00 Q 490.50,158.00 486.50,158.00 L 428.50,158.00 Q 424.50,158.00 424.50,154.00 L 424.50,96.00 Q 424.50,92.00 428.50,92.00 Z" />
    <path class="key-bg" d="M 498.50,92.00 L 556.50,92.00 Q 560.50,92.00 560.50,96.00 L 560.50,154.00 Q 560.50,158.00 556.50,158.00 L 498.50,158.00 Q 494.50,158.00 494.50,154.00 L 494.50,96.00 Q 494.50,92.00 498.50,92.00 Z" />
    <path class="key-bg" d="M 568.50,92.00 L 626.50,92.00 Q 630.50,92.00 630.50,96.00 L 630.50,154.00 Q 630.50,158.00 626.50,158.00 L 568.50,158.00 Q 564.50,158.00 564.50,154.00 L 564.50,96.00 Q 564.50,92.00 568.50,92.00 Z" />
    <path class="key-bg" d="M 638.50,92.00 L 696.50,92.00 Q 700.50,92.00 700.50,96.00 L 700.50,154.00 Q 700.50,158.00 696.50,158.00 L 638.50,158.00 Q 634.50,158.00 634.50,154.00 L 634.50,96.00 Q 634.50,92.00 638.50,92.00 Z" />
    <path class="key-bg" d="M 708.50,92.00 L 766.50,92.00 Q 770.50,92.00 770.50,96.00 L 770.50,154.00 Q 770.50,158.00 766.50,158.00 L 708.50,158.00 Q 704.50,158.00 704.50,154.00 L 704.50,96.00 Q 704.50,92.00 708.50,92.00 Z" />
    <path class="key-bg" d="M 26.00,162.00 L 84.00,162.00 Q 88.00,162.00 88.00,166.00 L 88.00,224.00 Q 88.00,228.00 84.00,228.00 L 26.00,228.00 Q 22.00,228.00 22.00,224.00 L 22.00,166.00 Q 22.00,162.00 26.00,162.00 Z" />
    <path class="key-bg" d="M 96.00,162.00 L 154.00,162.00 Q 158.00,162.00 158.00,166.00 L 158.00,224.00 Q 158.00,228.00 154.00,228.00 L 96.00,228.00 Q 92.00,228.00 92.00,224.00 L 92.00,166.00 Q 92.00,162.00 96.00,162.00 Z" />
    <path class="key-bg" d="M 166.00,162.00 L 224.00,162.00 Q 228.00,162.00 228.00,166.00 L 228.00,224.00 Q 228.00,228.00 224.00,228.00 L 166.00,228.00 Q 162.00,228.00 162.00,224.00 L 162.00,166.00 Q 162.00,162.00 166.00,162.00 Z" />
    <path class="key-bg" d="M 236.00,162.00 L 294.00,162.00 Q 298.00,162.00 298.00,166.00 L 298.00,224.00 Q 298.00,228.00 294.00,228.00 L 236.00,228.00 Q 232.00,228.00 232.00,224.00 L 232.00,166.00 Q 232.00,162.00 236.00,162.00 Z" />
    <path class="key-bg" d="M 306.00,162.00 L 364.00,162.00 Q 368.00,162.00 368.00,166.00 L 368.00,224.00 Q 368.00,228.00 364.00,228.00 L 306.00,228.00 Q 302.00,228.00 302.00,224.00 L 302.00,166.00 Q 302.00,162.00 306.00,162.00 Z" />
    <path class="key-bg" d="M 376.00,162.00 L 434.00,162.00 Q 438.00,162.00 438.00,166.00 L 438.00,224.00 Q 438.00,228.00 434.00,228.00 L 376.00,228.00 Q 372.00,228.00 372.00,224.00 L 372.00,166.00 Q 372.00,162.00 376.00,162.00 Z" />
    <path class="key-bg" d="M 446.00,162.00 L 504.00,162.00 Q 508.00,162.00 508.00,166.00 L 508.00,224.00 Q 508.00,228.00 504.00,228.00 L 446.00,228.00 Q 442.00,228.00 442.00,224.00 L 442.00,166.00 Q 442.00,162.00 446.00,162.00 Z" />
    <path class="key-bg" d="M 516.00,162.00 L 574.00,162.00 Q 578.00,162.00 578.00,166.00 L 578.00,224.00 Q 578.00,228.00 574.00,228.00 L 516.00,228.00 Q 512.00,228.00 512.00,224.00 L 512.00,166.00 Q 512.00,162.00 516.00,162.00 Z" />
    <path class="key-bg" d="M 586.00,162.00 L 644.00,162.00 Q 648.00,162.00 648.00,166.00 L 648.00,224.00 Q 648.00,228.00 644.00,228.00 L 586.00,228.00 Q 582.00,228.00 582.00,224.00 L 582.00,166.00 Q 582.00,162.00 586.00,162.00 Z" />
    <path class="key-bg" d="M 656.00,162.00 L 714.00,162.00 Q 718.00,162.00 718.00,166.00 L 718.00,224.00 Q 718.00,228.00 714.00,228.00 L 656.00,228.00 Q 652.00,228.00 652.00,224.00 L 652.00,166.00 Q 652.00,162.00 656.00,162.00 Z" />
    <path class="key-bg" d="M 726.00,162.00 L 784.00,162.00 Q 788.00,162.00 788.00,166.00 L 788.00,224.00 Q 788.00,228.00 784.00,228.00 L 726.00,228.00 Q 722.00,228.00 722.00,224.00 L 722.00,166.00 Q 722.00,162.00 726.00,162.00 Z" />
    <path class="key-bg" d="M 131.00,232.00 L 189.00,232.00 Q 193.00,232.00 193.00,236.00 L 193.00,294.00 Q 193.00,298.00 189.00,298.00 L 131.00,298.00 Q 127.00,298.00 127.00,294.00 L 127.00,236.00 Q 127.00,232.00 131.00,232.00 Z" />
    <path class="key-bg" d="M 201.00,232.00 L 399.00,232.00 Q 403.00,232.00 403.00,236.00 L 403.00,294.00 Q 403.00,298.00 399.00,298.00 L 201.00,298.00 Q 197.00,298.00 197.00,294.00 L 197.00,236.00 Q 197.00,232.00 201.00,232.00 Z" />
    <path class="key-bg" d="M 411.00,232.00 L 609.00,232.00 Q 613.00,232.00 613.00,236.00 L 613.00,294.00 Q 613.00,298.00 609.00,298.00 L 411.00,298.00 Q 407.00,298.00 407.00,294.00 L 407.00,236.00 Q 407.00,232.00 411.00,232.00 Z" />
    <path class="key-bg" d="M 621.00,232.00 L 679.00,232.00 Q 683.00,232.00 683.00,236.00 L 683.00,294.00 Q 683.00,298.00 679.00,298.00 L 621.00,298.00 Q 617.00,298.00 617.00,294.00 L 617.00,236.00 Q 617.00,232.00 621.00,232.00 Z" />
  </g>
  <g>
    <text class="key-index" x="55.00" y="55.00" font-size="36">0</text>
    <text class="key-index" x="125.00" y="55.00" font-size="36">1</text>
    <text class="key-index" x="195.00" y="55.00" font-size="36">2</text>
    <text class="key-index" x="265.00" y="55.00" font-size="36">3</text>
    <text class="key-index" x="335.00" y="55.00" font-size="36">4</text>
    <text class="key-index" x="405.00" y="55.00" font-size="36">5</text>
    <text class="key-index" x="475.00" y="55.00" font-size="36">6</text>
    <text class="key-index" x="545.00" y="55.00" font-size="36">7</text>
    <text class="key-index" x="615.00" y="55.00" font-size="36">8</text>
    <text class="key-index" x="685.00" y="55.00" font-size="36">9</text>
    <text class="key-index" x="755.00" y="55.00" font-size="36">10</text>
    <text class="key-index" x="63.75" y="125.00" font-size="36">11</text>
    <text class="key-index" x="142.50" y="125.00" font-size="36">12</text>
    <text class="key-index" x="212.50" y="125.00" font-size="36">13</text>
    <text class="key-index" x="282.50" y="125.00" font-size="36">14</text>
    <text class="key-index" x="352.50" y="125.00" font-size="36">15</text>
    <text class="key-index" x="457.50" y="125.00" font-size="36">16</text>
    <text class="key-index" x="527.50" y="125.00" font-size="36">17</text>
    <text class="key-index" x="597.50" y="125.00" font-size="36">18</text>
    <text class="key-index" x="667.50" y="125.00" font-size="36">19</text>
    <text class="key-index" x="737.50" y="125.00" font-size="36">20</text>
    <text class="key-index" x="55.00" y="195.00" font-size="36">21</text>
    <text class="key-index" x="125.00" y="195.00" font-size="36">22</text>
    <text class="key-index" x="195.00" y="195.00" font-size="36">23</text>
    <text class="key-index" x="265.00" y="195.00" font-size="36">24</text>
    <text class="key-index" x="335.00" y="195.00" font-size="36">25</text>
    <text class="key-index" x="405.00" y="195.00" font-size="36">26</text>
    <text class="key-index" x="475.00" y="195.00" font-size="36">27</text>
    <text class="key-index" x="545.00" y="195.00" font-size="36">28</text>
    <text class="key-index" x="615.00" y="195.00" font-size="36">29</text>
    <text class="key-index" x="685.00" y="195.00" font-size="36">30</text>
    <text class="key-index" x="755.00" y="195.00" font-size="36">31</text>
    <text class="key-index" x="160.00" y="265.00" font-size="36">32</text>
    <text class="key-index" x="300.00" y="265.00" font-size="36">33</text>
    <text class="key-index" x="510.00" y="265.00" font-size="36">34</text>
    <text class="key-index" x="650.00" y="265.00" font-size="36">35</text>
  </g>
</svg>
